<svg xmlns="http://www.w3.org/2000/svg" width="100" height="100" viewBox="0 0 100 100">
  <defs>
    <radialGradient id="ball" cx="36%" cy="30%" r="80%">
      <stop offset="0%" stop-color="#ffffff" />
      <stop offset="66%" stop-color="#eef0f3" />
      <stop offset="100%" stop-color="#ccd0d8" />
    </radialGradient>
  </defs>
  <circle cx="50" cy="50" r="47" fill="url(#ball)" stroke="#1c1326" stroke-width="3" />
  <g stroke="#1c1326" stroke-width="1.4" stroke-linejoin="round">
    <g transform="rotate(-10 50 50)">
      <path d="M50 50 C 42 38 44.5 21 50 12.5 C 55.5 21 58 38 50 50 Z" fill="#E4002B" />
      <path d="M50 50 C 42 38 44.5 21 50 12.5 C 55.5 21 58 38 50 50 Z" fill="#0061B8" transform="rotate(120 50 50)" />
      <path d="M50 50 C 42 38 44.5 21 50 12.5 C 55.5 21 58 38 50 50 Z" fill="#00984E" transform="rotate(240 50 50)" />
      <circle cx="50" cy="50" r="3" fill="#1c1326" />
    </g>
  </g>
  <ellipse cx="36" cy="29" rx="13" ry="8" fill="#ffffff" opacity="0.5" />
</svg>
